<svg width="320" height="371" viewBox="0 0 320 371" fill="none" xmlns="http://www.w3.org/2000/svg">
<path fill-rule="evenodd" clip-rule="evenodd" d="M0 161.332V158.668C0 71.039 71.0378 0 158.668 0H161.332C248.961 0 320 71.039 320 158.668V161.332C320 248.962 248.961 320 161.332 320H158.668C71.0378 320 0 248.962 0 161.332Z" fill="#E4EBF7"/>
<path fill-rule="evenodd" clip-rule="evenodd" d="M50.4806 166.262C50.3421 167.636 49.9342 168.97 49.2803 170.187C48.6264 171.404 47.7392 172.48 46.6694 173.354C45.5997 174.227 44.3682 174.882 43.0455 175.28C41.7227 175.678 40.3345 175.812 38.9601 175.673C37.5857 175.535 36.2521 175.127 35.0353 174.473C33.8186 173.819 32.7425 172.932 31.8687 171.862C30.9948 170.792 30.3401 169.561 29.9421 168.238C29.5442 166.915 29.4106 165.527 29.5491 164.153C29.8313 161.379 31.2031 158.831 33.3629 157.068C35.5228 155.306 38.2941 154.473 41.0679 154.752C43.8417 155.032 46.391 156.401 48.1558 158.559C49.9205 160.718 50.7562 163.488 50.4793 166.262" fill="white"/>
<path d="M61.4345 186.176L45.3594 199.887M46.9487 170.656L60.2706 178.209L46.9487 170.656Z" stroke="white" stroke-width="2"/>
<path fill-rule="evenodd" clip-rule="evenodd" d="M50.6336 202.502C50.5462 203.449 50.2721 204.369 49.8272 205.21C49.3823 206.051 48.7753 206.795 48.0412 207.399C47.3072 208.004 46.4606 208.458 45.5505 208.734C44.6403 209.009 43.6845 209.102 42.7382 209.007C41.7919 208.911 40.8739 208.63 40.0371 208.178C39.2004 207.725 38.4614 207.112 37.8629 206.373C37.2644 205.634 36.8182 204.784 36.55 203.871C36.2819 202.959 36.1971 202.002 36.3006 201.057C36.5072 199.168 37.4516 197.438 38.9281 196.242C40.4045 195.047 42.2935 194.483 44.1837 194.673C46.0739 194.864 47.8122 195.794 49.0203 197.26C50.2283 198.726 50.8081 200.61 50.6336 202.502V202.502ZM73.1456 182.031C73.0542 182.982 72.7758 183.906 72.3264 184.749C71.8771 185.593 71.2655 186.339 70.5269 186.945C69.7883 187.551 68.9372 188.006 68.0225 188.282C67.1078 188.559 66.1475 188.652 65.1968 188.556C64.246 188.46 63.3236 188.177 62.4824 187.724C61.6412 187.271 60.8978 186.656 60.295 185.915C59.6922 185.173 59.2417 184.32 58.9696 183.404C58.6974 182.488 58.6088 181.527 58.709 180.577C58.9056 178.665 59.8525 176.91 61.342 175.696C62.8314 174.482 64.7417 173.908 66.6536 174.101C68.5655 174.294 70.3228 175.237 71.5399 176.724C72.757 178.211 73.3345 180.12 73.1456 182.033V182.031ZM125.803 34.1236L163.705 34.1072C164.47 34.1068 165.229 33.9557 165.936 33.6623C166.643 33.369 167.286 32.9392 167.827 32.3975C168.368 31.8558 168.797 31.2129 169.09 30.5053C169.383 29.7977 169.533 29.0394 169.533 28.2737C169.533 27.508 169.382 26.7498 169.088 26.0425C168.795 25.3352 168.365 24.6926 167.823 24.1514C167.282 23.6101 166.639 23.1809 165.931 22.8882C165.224 22.5955 164.465 22.445 163.7 22.4453L125.798 22.4617C124.273 22.4941 122.821 23.123 121.753 24.2135C120.686 25.3041 120.089 26.7693 120.09 28.2951C120.09 29.8209 120.689 31.2857 121.757 32.3753C122.825 33.4648 124.278 34.0925 125.803 34.1236ZM140.3 57.4296L178.201 57.4132C178.977 57.429 179.748 57.2897 180.469 57.0037C181.191 56.7176 181.848 56.2904 182.402 55.7471C182.956 55.2038 183.396 54.5553 183.697 53.8397C183.997 53.1241 184.152 52.3558 184.152 51.5797C184.151 50.8036 183.996 50.0353 183.695 49.32C183.394 48.6046 182.953 47.9566 182.398 47.4138C181.844 46.871 181.186 46.4443 180.465 46.1589C179.743 45.8734 178.971 45.7348 178.196 45.7513L140.294 45.7677C138.747 45.7684 137.265 46.3834 136.172 47.4774C135.079 48.5713 134.465 50.0547 134.466 51.6012C134.466 53.1476 135.081 54.6305 136.175 55.7235C137.269 56.8166 138.753 57.4302 140.299 57.4296" fill="white"/>
<path fill-rule="evenodd" clip-rule="evenodd" d="M143.318 34.109V34.1065L163.377 34.0977C161.83 34.0985 160.348 34.7136 159.255 35.8077C158.162 36.9018 157.548 38.3853 157.549 39.9317C157.55 41.4782 158.165 42.961 159.259 44.0539C160.353 45.1468 161.837 45.7603 163.383 45.7595L143.321 45.7683V45.7658C144.846 45.7334 146.298 45.1048 147.364 44.0147C148.431 42.9247 149.028 41.4601 149.027 39.9349C149.027 38.4098 148.428 36.9457 147.361 35.8566C146.293 34.7675 144.841 34.1401 143.316 34.109H143.318ZM189.567 87.9747H184.544C182.947 87.9697 181.417 87.3329 180.288 86.2035C179.159 85.0741 178.522 83.5438 178.518 81.9468C178.522 80.3499 179.159 78.8197 180.288 77.6905C181.417 76.5613 182.947 75.9249 184.544 75.9202H189.567C191.164 75.9249 192.695 76.5613 193.824 77.6904C194.954 78.8196 195.59 80.3498 195.595 81.9468C195.591 83.5441 194.954 85.0746 193.825 86.204C192.695 87.3334 191.165 87.97 189.567 87.9747Z" fill="white"/>
<path fill-rule="evenodd" clip-rule="evenodd" d="M216.734 37.6588C216.734 16.9659 233.51 0.191406 254.203 0.191406C274.896 0.191406 291.67 16.9659 291.67 37.6588C291.67 58.3529 274.896 75.1274 254.203 75.1274C233.51 75.1274 216.736 58.3529 216.736 37.66" fill="#FF603B"/>
<path fill-rule="evenodd" clip-rule="evenodd" d="M256.965 24.0271L256.112 43.0069C256.094 43.5015 255.885 43.9697 255.528 44.3132C255.172 44.6567 254.696 44.8487 254.202 44.8487C253.707 44.8487 253.231 44.6567 252.875 44.3132C252.519 43.9697 252.31 43.5015 252.292 43.0069L251.44 24.0271C251.426 23.6557 251.487 23.2853 251.62 22.9381C251.752 22.5909 251.954 22.274 252.212 22.0064C252.469 21.7388 252.779 21.5259 253.121 21.3805C253.463 21.2351 253.831 21.1602 254.202 21.1602C254.574 21.1602 254.942 21.2351 255.284 21.3805C255.626 21.5259 255.935 21.7388 256.193 22.0064C256.451 22.274 256.652 22.5909 256.785 22.9381C256.917 23.2853 256.979 23.6557 256.965 24.0271V24.0271ZM256.632 48.4894C257.279 49.0916 257.604 49.878 257.604 50.8501C257.604 51.8221 257.279 52.6086 256.632 53.2574C255.937 53.8583 255.104 54.1827 254.179 54.1827C253.74 54.1906 253.304 54.1085 252.898 53.9413C252.492 53.7741 252.124 53.5254 251.818 53.2107C251.124 52.5618 250.801 51.7766 250.801 50.8501C250.801 49.878 251.124 49.0916 251.818 48.4894C252.466 47.8418 253.254 47.5641 254.179 47.5641C255.151 47.5641 255.984 47.8418 256.632 48.4894Z" fill="white"/>
<path fill-rule="evenodd" clip-rule="evenodd" d="M150.602 167.738C156.189 166.983 155.162 166.218 155.751 161.706C156.603 155.167 151.828 140.328 145.321 129.998C143.948 116.465 129.418 115.809 129.418 115.809C129.418 115.809 134.861 121.988 134.715 136.258C136.48 142.876 135.73 154.499 135.73 154.499C135.73 154.499 142.364 168.851 150.601 167.738" fill="#FFB594"/>
<path fill-rule="evenodd" clip-rule="evenodd" d="M127.43 115.141C127.43 115.141 129.277 114.405 131.483 115.876C141.683 117.641 144.572 124.341 145.748 130.227C148.101 131.845 148.101 133.168 148.101 134.64C148.562 135.621 150.014 138.465 150.014 138.465C150.014 138.465 140.893 140.671 136.186 146.996C134.419 138.904 127.43 115.14 127.43 115.14" fill="white"/>
<path fill-rule="evenodd" clip-rule="evenodd" d="M118.674 113.74L119.961 106.4L108.309 91.4102L101.703 98.4555L98.4297 110.906C98.4297 110.906 109.021 117.38 118.674 113.742" fill="#FFB594"/>
<path fill-rule="evenodd" clip-rule="evenodd" d="M104.69 98.2296C104.69 98.2296 98.9375 94.6091 101.604 89.5293C103.664 85.6071 107.331 90.9671 107.331 90.9671C107.331 90.9671 107.993 86.3443 111.294 86.3443C111.954 85.0238 113.274 81.0625 113.274 81.0625C113.274 81.0625 127.8 84.3636 130.443 85.0238C130.441 91.6261 127.518 109.677 120.49 110.232C109.204 111.123 104.69 98.2296 104.69 98.2296Z" fill="#FFC6A0"/>
<path fill-rule="evenodd" clip-rule="evenodd" d="M129.988 90.6918C133.29 88.0496 134.392 78.352 134.392 78.352C134.392 78.352 131.246 77.7309 125.965 75.749C120.021 73.1081 109.722 69.7262 103.778 76.9887C91.7352 82.5557 101.175 102.148 101.175 102.148L104.62 98.314C104.62 98.314 99.6263 94.1431 101.979 90.3901C104.735 85.997 106.957 91.7534 106.957 91.7534C106.957 91.7534 107.765 88.7237 111.501 87.5118C111.951 86.6105 112.814 84.116 113.319 82.6239C113.428 82.3023 113.652 82.0326 113.948 81.8676C114.245 81.7025 114.592 81.654 114.923 81.7314C117.965 82.4383 125.934 84.294 129.335 85.1095C129.997 85.2686 130.441 85.8909 130.377 86.5688L129.988 90.6918V90.6918Z" fill="#520038"/>
<path fill-rule="evenodd" clip-rule="evenodd" d="M127.778 96.0818C127.647 96.8556 127.039 97.3997 126.42 97.2937C125.801 97.1901 125.403 96.4782 125.533 95.7031C125.665 94.9292 126.272 94.3851 126.892 94.4899C127.512 94.5947 127.908 95.3067 127.778 96.0805V96.0818ZM118.992 94.264C118.861 95.0378 118.253 95.5819 117.633 95.4758C117.015 95.3723 116.617 94.6603 116.747 93.8852C116.879 93.1114 117.486 92.5673 118.106 92.6734C118.725 92.7769 119.122 93.4889 118.992 94.264Z" fill="#552950"/>
<path d="M125.237 92.4609L124.101 94.506L123.722 100.035H120.895" stroke="#DB836E" stroke-width="1.063" stroke-linecap="round" stroke-linejoin="round"/>
<path d="M126.145 92.0085C126.145 92.0085 128.417 91.0996 129.326 92.6902" stroke="#5C2552" stroke-width="1.117" stroke-linecap="round" stroke-linejoin="round"/>
<path d="M102.715 91.7523C102.715 91.7523 103.321 90.3384 104.129 90.8433C104.937 91.3483 105.745 92.6612 104.836 93.3681C103.927 94.075 105.038 95.4889 105.038 95.4889" stroke="#DB836E" stroke-width="1.117" stroke-linecap="round" stroke-linejoin="round"/>
<path d="M116.551 90.0391C116.551 90.0391 118.874 91.4529 121.802 91.2509" stroke="#5C2552" stroke-width="1.117" stroke-linecap="round" stroke-linejoin="round"/>
<path d="M105.645 100.543C105.645 100.543 107.899 108.808 117.337 110.584M117.055 101.25C117.055 101.25 119.883 102.765 122.61 102.765L117.055 101.25ZM118.267 104.482C118.267 104.482 119.479 104.987 120.186 104.886L118.267 104.482Z" stroke="#DB836E" stroke-width="1.063" stroke-linecap="round" stroke-linejoin="round"/>
<path d="M120.617 115.21C120.617 115.21 119.269 118.771 110.142 117.867C101.015 116.962 97.1523 111.5 97.1523 111.5" stroke="#E4EBF7" stroke-width="1.136" stroke-linecap="round" stroke-linejoin="round"/>
<path fill-rule="evenodd" clip-rule="evenodd" d="M98.6236 109.922C98.6236 109.922 106.862 116.199 119.415 113.061C119.415 113.061 131.505 114.348 133.978 119.779C140.744 134.637 134.663 166.279 133.978 170.226C138.391 175.345 133.389 180.935 133.389 180.935C113.666 176.456 88.1838 180.178 88.1838 180.178C82.0625 175.701 86.6399 168.761 86.6399 168.761L78.7462 138.758C75.6092 119.535 79.7978 113.759 83.2264 112.572C87.0514 111.248 93.3759 110.954 93.3759 110.954C94.0021 110.881 94.7393 110.858 95.1054 110.66C98.0846 109.041 98.6236 109.924 98.6236 109.924" fill="white"/>
<path fill-rule="evenodd" clip-rule="evenodd" d="M83.1003 112.871C83.1003 112.871 74.4214 113.458 73.5188 123.167C72.9306 134.348 77.3438 136.995 77.3438 136.995C77.3438 136.995 85.0128 164.896 98.5467 165.976C109.138 163.229 104.553 157.515 104.431 151.559C104.137 137.289 95.4577 130.229 95.4577 130.229C95.4577 130.229 90.1406 112.871 83.1003 112.871" fill="#FFC6A0"/>
<path fill-rule="evenodd" clip-rule="evenodd" d="M90.5312 156.313C90.5312 156.313 91.6106 170.533 102.938 164.501C108.953 161.3 112.508 147.045 115.295 136.012C117.133 128.73 118.552 120.614 118.552 120.614L112.274 118.457C112.274 118.457 109.235 125.42 102.467 133.953C96.9946 140.854 90.9238 147.978 90.5312 156.313Z" fill="#FFC6A0"/>
<path d="M136.92 132.285C136.92 132.285 139.126 135.724 133.978 170.832C136.977 173.629 135.307 178.421 133.684 180.312" stroke="#E4EBF7" stroke-width="1.085" stroke-linecap="round" stroke-linejoin="round"/>
<path fill-rule="evenodd" clip-rule="evenodd" d="M155.603 165.53C155.603 165.53 155.064 168.979 140.744 168.031C121.573 166.761 108.773 163.928 108.773 163.928L109.951 156.606C109.951 156.606 110.864 156.878 122.209 156.52C137.215 156.05 145.833 148.858 153.723 155.23C158.822 159.349 155.603 165.531 155.603 165.531" fill="#FFC6A0"/>
<path fill-rule="evenodd" clip-rule="evenodd" d="M88.6681 114.339C88.6681 114.339 81.6077 108.357 74.7138 117.723C70.5252 126.841 75.3665 137.017 78.0768 142.437C77.6854 147.145 81.0181 147.879 81.0181 147.879C81.0181 147.879 81.1545 149.009 82.9319 151.263C88.0799 142.388 91.4151 139.692 100.24 135.425C99.8263 134.597 97.8709 131.303 97.9365 130.669C98.1574 128.536 96.3181 127.358 96.3181 127.358C96.3181 127.358 95.9571 127.161 94.8475 123.902C93.8527 120.982 92.2773 117.367 88.6681 114.339" fill="white"/>
<path fill-rule="evenodd" clip-rule="evenodd" d="M113.908 363.092C113.908 363.092 120.037 366.006 124.402 364.55C128.427 363.208 130.865 365.503 134.504 366.23C138.141 366.959 144.311 367.8 151.176 364.433C151.028 356.571 141.347 358.753 134.111 354.854C130.456 352.885 128.713 348.118 128.978 342.301H115.564C115.564 342.301 113.579 357.31 113.908 363.092" fill="#CBD1D1"/>
<path fill-rule="evenodd" clip-rule="evenodd" d="M113.875 362.852C113.875 362.852 117.34 364.666 123.518 363.783C127.881 363.16 127.587 364.616 132.883 365.402C138.178 366.185 149.41 365.157 150.978 363.98C151.566 365.548 150.488 366.921 150.488 366.921C150.488 366.921 148.33 367.782 143.623 368.098C140.726 368.292 133.4 368.446 130.822 367.314C128.272 365.352 124.644 365.402 123.172 367.019C117.584 368.376 114.103 366.627 114.103 366.627L113.875 362.852V362.852Z" fill="#2B0849"/>
<path fill-rule="evenodd" clip-rule="evenodd" d="M124.254 343.184H128.668C128.668 343.184 128.52 352.745 135.14 355.392C128.52 356.276 122.93 352.107 124.254 343.184" fill="#A4AABA"/>
<path fill-rule="evenodd" clip-rule="evenodd" d="M56.082 342.918C56.082 342.918 53.2946 352.732 50.1463 359.201C47.768 364.092 44.5565 369.116 57.3784 369.116C66.1772 369.116 69.2258 368.481 67.2023 360.384C65.1774 352.286 67.5545 342.918 67.5545 342.918H56.082Z" fill="#CBD1D1"/>
<path fill-rule="evenodd" clip-rule="evenodd" d="M48.0556 365.934C48.0556 365.934 50.8303 367.481 56.8342 367.481C64.8831 367.481 67.7487 365.297 67.7487 365.297C67.7487 365.297 68.544 366.771 66.9294 368.162C65.6166 369.295 62.1703 370.268 57.1523 370.209C51.6648 370.146 49.4329 369.46 48.2374 368.664C47.1467 367.935 47.3285 366.572 48.0556 365.934" fill="#2B0849"/>
<path fill-rule="evenodd" clip-rule="evenodd" d="M57.2427 345.44C57.2427 345.44 57.2869 347.45 56.8274 349.316C56.3666 351.197 55.4009 353.425 55.3328 354.795C55.2558 356.317 61.3354 356.886 62.1534 354.84C62.9739 352.793 63.8664 346.336 64.6857 345.244C65.5037 344.152 58.1971 342.439 57.2427 345.44Z" fill="#A4AABA"/>
<path fill-rule="evenodd" clip-rule="evenodd" d="M112.954 349.892L130.5 350.012C130.5 350.012 132.202 278.507 132.93 265.548C133.657 252.587 137.882 208.675 134.245 182.755L117.787 181.91L87.8223 182.933C87.8223 182.933 87.2517 188.134 86.2532 196.017C86.1712 196.667 85.3594 197.121 85.2723 197.806C85.1739 198.574 85.8265 199.582 85.6915 200.386C82.5923 218.851 78.3735 241.711 75.2693 259.512C75.1165 260.387 73.6509 260.835 73.3568 263.042C73.3037 263.438 73.6345 265.041 73.5032 265.396C64.4898 289.978 58.0997 331.798 53.7344 350.215L72.8922 350.196C72.8922 350.196 75.773 337.39 78.1753 326.374C81.8639 309.472 108.487 214.881 108.487 214.881L112.442 213.677L112.243 274.988C112.243 274.988 111.949 276.606 112.685 277.636C113.421 278.665 111.951 279.109 112.17 280.579L112.685 282.932C112.685 282.932 112.097 292.347 111.508 298.525C110.919 304.704 112.954 349.891 112.954 349.891" fill="#7BB2F9"/>
<path d="M121.219 280.416C121.219 280.416 124.855 278.961 129.222 275.323M81.5117 275.804C83.0228 275.929 86.8074 273.157 90.6324 269.332L81.5117 275.804Z" stroke="#648BD8" stroke-width="1.085" stroke-linecap="round" stroke-linejoin="round"/>
<path d="M122.418 276.424C122.418 276.424 126.056 274.969 130.421 271.332" stroke="#648BD8" stroke-width="1.032" stroke-linecap="round" stroke-linejoin="round"/>
<path d="M55.8516 345.037H73.3077M79.7484 279.92C79.7484 279.92 83.1871 279.145 88.2808 275.507L79.7484 279.92ZM94.5573 184.007C94.2026 188.08 94.9486 195.187 88.869 195.972L94.5573 184.007ZM117.632 181.707C117.632 181.707 117.777 200.083 115.936 201.463C113.026 203.647 112.013 204.013 112.013 204.013L117.632 181.707ZM112.602 182.438C112.602 182.438 112.941 199.031 111.327 214.108L112.602 182.438ZM105.442 214.991C105.442 214.991 114.038 213.664 116.949 213.664L105.442 214.991ZM58.1036 340.389L56.9776 346.118L58.1036 340.389ZM59.2537 331.861L58.2248 337.108L59.2537 331.861ZM79.1841 255.126C78.7675 257.168 79.0553 257.529 78.6173 259.466C78.6173 259.466 75.1382 261.868 75.7264 264.418C76.3147 266.968 75.3351 268.74 70.0394 286.197C67.8151 293.527 64.6958 310.083 62.2569 321.894C62.219 322.076 61.5992 325.234 60.8178 329.216L79.1841 255.126ZM80.9931 244.563C80.6207 246.656 80.2356 248.742 79.8355 250.797L80.9931 244.563ZM90.0468 184.791L88.4764 198.522C88.4764 198.522 87.0373 198.718 87.8213 201.463C87.969 203.229 84.3144 222.154 81.0271 241.373L90.0468 184.791Z" stroke="#648BD8" stroke-width="1.085" stroke-linecap="round" stroke-linejoin="round"/>
<path fill-rule="evenodd" clip-rule="evenodd" d="M134.041 178.897C130.218 178.28 110.277 175.433 88.3188 179.15C88.1295 179.182 87.9586 179.283 87.8383 179.432C87.7179 179.582 87.6562 179.771 87.6649 179.962C87.7444 181.612 87.7204 182.92 87.6838 183.743C87.6787 183.859 87.6995 183.974 87.7446 184.081C87.7897 184.188 87.8581 184.283 87.9447 184.36C88.0312 184.437 88.1339 184.493 88.2451 184.526C88.3564 184.558 88.4734 184.565 88.5877 184.546C92.7573 183.872 110.095 181.501 133.609 184.21C134.047 184.261 134.442 183.94 134.483 183.503C134.639 181.803 134.685 180.442 134.697 179.68C134.701 179.492 134.636 179.309 134.516 179.165C134.395 179.022 134.226 178.926 134.041 178.897" fill="#192064"/>
<path fill-rule="evenodd" clip-rule="evenodd" d="M121.689 182.872L121.693 176.432C121.694 176.156 121.589 175.89 121.398 175.691C121.208 175.491 120.947 175.374 120.671 175.362C117.247 175.234 113.819 175.228 110.394 175.345C110.117 175.355 109.854 175.471 109.661 175.671C109.468 175.87 109.36 176.137 109.359 176.414L109.355 182.848C109.355 183.449 109.845 183.93 110.446 183.915C113.574 183.834 116.968 183.83 120.583 183.937C120.726 183.941 120.869 183.917 121.002 183.866C121.136 183.815 121.258 183.737 121.361 183.638C121.464 183.539 121.546 183.42 121.602 183.288C121.659 183.157 121.688 183.015 121.689 182.872" fill="white"/>
<path fill-rule="evenodd" clip-rule="evenodd" d="M120.229 181.65L120.231 177.617C120.233 177.398 120.149 177.186 119.998 177.028C119.846 176.87 119.639 176.776 119.419 176.769C117.021 176.692 114.444 176.676 111.727 176.756C111.506 176.763 111.296 176.855 111.142 177.013C110.988 177.172 110.902 177.383 110.901 177.604L110.898 181.634C110.898 182.108 111.283 182.488 111.757 182.478C114.104 182.425 116.647 182.424 119.356 182.493C119.831 182.506 120.227 182.126 120.229 181.65" fill="#192064"/>
<path d="M114.169 214.609L115.345 273.158C115.345 273.158 116.229 275.217 115.051 276.688C113.875 278.16 118.288 277.572 116.228 279.629C114.17 281.691 117.406 281.101 116.228 284.044C115.448 285.996 114.926 311.716 114.791 330.137M113.742 344.783H129.925H113.742ZM115.148 340.035C115.156 344.478 115.058 347.042 115.148 347.978V340.035ZM114.779 332.099C114.767 334.117 114.758 335.328 114.758 337.786L114.779 332.099Z" stroke="#648BD8" stroke-width="1.085" stroke-linecap="round" stroke-linejoin="round"/>
<path d="M97.9589 113.16C97.9589 113.16 107.668 120.907 118.847 116.594M93.0836 124.046L95.8784 129.489C95.8784 129.489 98.5269 130.519 98.2328 132.872L99.2629 135.667L93.0836 124.046ZM81.168 146.7C81.4621 145.524 83.9149 137.678 97.055 133.46L81.168 146.7Z" stroke="#E4EBF7" stroke-width="1.085" stroke-linecap="round" stroke-linejoin="round"/>
<path fill-rule="evenodd" clip-rule="evenodd" d="M116.104 109.262C116.104 109.262 123.017 108.232 125.666 103.524C127.303 103.089 126.575 106.317 125.249 108.159C124.365 109.384 123.974 110.12 123.974 110.12C123.974 110.12 124.219 110.512 124.17 111.15C124.103 112.03 123.949 111.975 123.826 112.473C123.724 112.896 123.963 113.303 123.826 113.798C123.768 114.012 123.577 114.429 123.344 114.906C123.193 115.22 123.253 115.773 123.092 116.103C122.8 116.695 121.12 118.463 119.782 119.707C114.952 124.193 113.447 121.782 112.206 119.192C111.078 116.837 111.372 112.719 111.103 110.513C110.661 106.834 107.793 106.688 108.675 104.922C109.108 104.057 112.298 105.793 112.795 107.128C113.75 109.704 116.521 109.41 116.104 109.262" fill="#FFC6A0"/>
<path d="M125.986 103.551C125.399 103.648 125.544 103.894 124.762 105.12C123.976 106.346 118.681 108.821 116.695 109.19C113.427 109.796 113.819 107.221 111.325 105.586C109.191 104.188 106.828 104.78 109.56 107.351C110.81 108.527 110.737 108.748 111.325 111.396C111.748 113.298 110.517 116.029 112.208 118.457" stroke="#DB836E" stroke-width="0.774" stroke-linecap="round" stroke-linejoin="round"/>
<path d="M100.413 136.684C97.7625 140.377 95.0282 144.479 93.3984 147.745" stroke="#E59788" stroke-width="0.774" stroke-linecap="round" stroke-linejoin="round"/>
<path fill-rule="evenodd" clip-rule="evenodd" d="M110.737 156.996C110.737 156.996 108.089 154.545 104.265 153.564C100.44 152.583 99.7533 153.368 97.3017 153.662C94.8502 153.957 92.3974 152.486 92.6915 154.546C92.9857 156.604 99.0665 155.821 99.2635 157.193C99.4591 158.565 91.2221 160.723 88.7693 159.939C87.7885 160.92 89.3576 162.292 91.3193 162.685C91.6135 164.646 94.1635 164.646 94.1635 164.646C94.1635 164.646 95.0459 165.921 97.4974 166.02C100.636 167.686 108.775 165.136 111.325 164.058C113.875 162.979 110.737 156.996 110.737 156.996" fill="#FFC6A0"/>
<path d="M99.5566 135.961C99.5566 135.961 88.9652 139.443 82.9336 151.261M92.6905 154.546C92.6905 154.546 93.5237 155.968 96.6885 156.336C99.6109 156.677 99.9239 157.072 99.9239 157.072C99.9239 157.072 96.7112 160.725 88.4742 159.94L92.6905 154.546ZM91.4168 162.685C91.4168 162.685 96.2466 162.808 97.6441 161.779L91.4168 162.685ZM94.6535 164.549C94.6535 164.549 97.129 164.72 98.8951 163.911L94.6535 164.549ZM97.4964 166.021C97.4964 166.021 99.703 166.045 101.175 165.383L97.4964 166.021ZM92.5681 153.908C92.5681 153.908 91.8169 152.605 94.1612 153.369C96.2706 154.056 97.7375 153.439 100.635 153.565C102.388 153.642 104.506 153.19 105.661 153.754C107.689 154.744 110.246 156.507 110.246 156.507C110.246 156.507 123.534 158.027 134.273 155.085L92.5681 153.908Z" stroke="#E59788" stroke-width="0.774" stroke-linecap="round" stroke-linejoin="round"/>
<path d="M137.949 141.553C137.949 141.553 142.216 136.992 147.512 135.668" stroke="#E4EBF7" stroke-width="1.085" stroke-linecap="round" stroke-linejoin="round"/>
<path d="M135.547 154.771C135.547 154.771 147.788 151.305 149.995 153.66" stroke="#E59788" stroke-width="0.774" stroke-linecap="round" stroke-linejoin="round"/>
<path d="M167.866 214.148L162.873 209.155M245.666 105.1L250.679 100.194L245.666 105.1ZM236.276 114.286L240.992 109.672L236.276 114.286ZM242.065 105.795L236.432 100.039L242.065 105.795ZM250.524 114.443L245.307 109.109L250.524 114.443ZM163.171 205.355L167.865 200.662L163.171 205.355ZM154.379 214.148L158.795 209.732L154.379 214.148ZM159.769 206.052L154.379 200.662L159.769 206.052Z" stroke="#BFCDDD" stroke-width="2" stroke-linecap="round" stroke-linejoin="round"/>
<path fill-rule="evenodd" clip-rule="evenodd" d="M240.049 266.84H238.024C236.683 266.836 235.397 266.301 234.448 265.352C233.5 264.404 232.965 263.118 232.961 261.776V221.269C232.965 219.928 233.5 218.643 234.448 217.694C235.397 216.746 236.682 216.211 238.023 216.207H240.049C241.391 216.211 242.676 216.746 243.625 217.694C244.573 218.642 245.108 219.928 245.113 221.269V261.776C245.108 263.118 244.574 264.403 243.625 265.351C242.677 266.299 241.392 266.834 240.05 266.838" fill="#A3B4C6"/>
<path fill-rule="evenodd" clip-rule="evenodd" d="M300.222 268.349C300.222 269.961 299.582 271.506 298.443 272.646C297.303 273.785 295.758 274.425 294.146 274.425H184.779C183.168 274.425 181.622 273.785 180.483 272.646C179.343 271.506 178.703 269.961 178.703 268.349C178.703 266.738 179.343 265.192 180.483 264.053C181.622 262.914 183.168 262.273 184.779 262.273H294.146C295.758 262.273 297.303 262.914 298.443 264.053C299.582 265.192 300.222 266.738 300.222 268.349" fill="#A3B4C6"/>
<path fill-rule="evenodd" clip-rule="evenodd" d="M194.531 239.467H283.545V132.648H194.531V239.467Z" fill="#A3B4C6"/>
<path fill-rule="evenodd" clip-rule="evenodd" d="M283.943 239.468H194.128C193.055 239.465 192.027 239.037 191.268 238.278C190.509 237.519 190.081 236.491 190.078 235.417V211.474C190.081 210.401 190.509 209.372 191.267 208.613C192.026 207.853 193.054 207.425 194.128 207.422H283.943C285.017 207.425 286.046 207.853 286.805 208.612C287.564 209.372 287.991 210.4 287.994 211.474V235.417C287.991 236.491 287.563 237.52 286.804 238.279C286.045 239.038 285.016 239.465 283.942 239.468H283.943ZM283.943 164.655H194.128C193.055 164.651 192.027 164.224 191.268 163.465C190.509 162.706 190.081 161.678 190.078 160.605V136.66C190.081 135.587 190.509 134.559 191.268 133.8C192.027 133.041 193.055 132.613 194.128 132.609H283.943C285.017 132.613 286.046 133.041 286.805 133.8C287.564 134.559 287.991 135.588 287.994 136.662V160.605C287.991 161.679 287.563 162.707 286.804 163.466C286.044 164.225 285.016 164.652 283.942 164.655" fill="#BFCDDD"/>
<path fill-rule="evenodd" clip-rule="evenodd" d="M201.429 151.67C201.024 151.678 200.623 151.606 200.247 151.457C199.871 151.308 199.529 151.086 199.24 150.803C198.951 150.52 198.722 150.182 198.565 149.809C198.409 149.437 198.328 149.037 198.328 148.632C198.328 148.228 198.409 147.828 198.565 147.455C198.722 147.083 198.951 146.745 199.24 146.462C199.529 146.179 199.871 145.957 200.247 145.808C200.623 145.659 201.024 145.586 201.429 145.594C202.224 145.611 202.981 145.938 203.537 146.506C204.094 147.074 204.405 147.837 204.405 148.632C204.405 149.427 204.094 150.191 203.537 150.759C202.981 151.327 202.224 151.654 201.429 151.67V151.67ZM210.792 151.67C210.387 151.678 209.986 151.606 209.61 151.457C209.234 151.308 208.892 151.086 208.603 150.803C208.314 150.52 208.085 150.182 207.928 149.809C207.772 149.437 207.691 149.037 207.691 148.632C207.691 148.228 207.772 147.828 207.928 147.455C208.085 147.083 208.314 146.745 208.603 146.462C208.892 146.179 209.234 145.957 209.61 145.808C209.986 145.659 210.387 145.586 210.792 145.594C211.587 145.611 212.344 145.938 212.9 146.506C213.457 147.074 213.768 147.837 213.768 148.632C213.768 149.427 213.457 150.191 212.9 150.759C212.344 151.327 211.587 151.654 210.792 151.67ZM220.155 151.67C219.751 151.678 219.349 151.606 218.973 151.457C218.597 151.308 218.255 151.086 217.966 150.803C217.677 150.52 217.448 150.182 217.291 149.809C217.135 149.437 217.054 149.037 217.054 148.632C217.054 148.228 217.135 147.828 217.291 147.455C217.448 147.083 217.677 146.745 217.966 146.462C218.255 146.179 218.597 145.957 218.973 145.808C219.349 145.659 219.751 145.586 220.155 145.594C220.95 145.611 221.707 145.938 222.263 146.506C222.82 147.074 223.131 147.837 223.131 148.632C223.131 149.427 222.82 150.191 222.263 150.759C221.707 151.327 220.95 151.654 220.155 151.67ZM280.928 151.67H252.574C252.305 151.67 252.048 151.564 251.858 151.374C251.668 151.184 251.561 150.926 251.561 150.658V146.608C251.561 146.049 252.015 145.594 252.574 145.594H280.927C281.487 145.594 281.94 146.049 281.94 146.608V150.658C281.94 151.217 281.486 151.67 280.928 151.67Z" fill="white"/>
<path fill-rule="evenodd" clip-rule="evenodd" d="M283.943 202.061H194.128C193.055 202.058 192.026 201.63 191.267 200.871C190.509 200.112 190.081 199.083 190.078 198.01V174.067C190.081 172.993 190.509 171.965 191.268 171.206C192.027 170.447 193.055 170.019 194.128 170.016H283.943C285.017 170.019 286.045 170.447 286.804 171.206C287.563 171.965 287.991 172.993 287.994 174.067V198.01C287.991 199.084 287.563 200.113 286.804 200.872C286.045 201.631 285.016 202.058 283.942 202.061" fill="#BFCDDD"/>
<path d="M196.387 202.247H204.909M218.964 164.652H281.201H218.964ZM208.271 164.652H215.957H208.271ZM196.869 164.652H205.39H196.869ZM219.447 202.247H281.682H219.447ZM208.752 202.247H216.438H208.752Z" stroke="#7C90A5" stroke-width="1.124" stroke-linecap="round" stroke-linejoin="round"/>
<path fill-rule="evenodd" clip-rule="evenodd" d="M201.429 190.163C200.623 190.163 199.85 189.843 199.28 189.273C198.71 188.703 198.39 187.93 198.39 187.124C198.39 186.319 198.71 185.546 199.28 184.976C199.85 184.406 200.623 184.086 201.429 184.086C202.234 184.086 203.007 184.406 203.577 184.976C204.147 185.546 204.467 186.319 204.467 187.124C204.467 187.93 204.147 188.703 203.577 189.273C203.007 189.843 202.234 190.163 201.429 190.163V190.163ZM210.792 190.163C209.986 190.163 209.213 189.843 208.643 189.273C208.073 188.703 207.753 187.93 207.753 187.124C207.753 186.319 208.073 185.546 208.643 184.976C209.213 184.406 209.986 184.086 210.792 184.086C211.598 184.086 212.37 184.406 212.94 184.976C213.51 185.546 213.83 186.319 213.83 187.124C213.83 187.93 213.51 188.703 212.94 189.273C212.37 189.843 211.598 190.163 210.792 190.163V190.163ZM220.155 190.163C219.756 190.163 219.361 190.084 218.992 189.931C218.623 189.779 218.288 189.555 218.006 189.273C217.724 188.99 217.5 188.655 217.348 188.287C217.195 187.918 217.117 187.523 217.117 187.124C217.117 186.725 217.196 186.33 217.348 185.961C217.501 185.592 217.725 185.258 218.007 184.975C218.289 184.693 218.624 184.47 218.993 184.317C219.362 184.164 219.757 184.086 220.156 184.086C220.962 184.086 221.735 184.406 222.305 184.976C222.874 185.546 223.194 186.319 223.194 187.124C223.194 187.93 222.874 188.703 222.305 189.273C221.735 189.843 220.962 190.163 220.156 190.163H220.155ZM280.928 190.163H252.574C252.305 190.163 252.048 190.056 251.858 189.866C251.668 189.677 251.561 189.419 251.561 189.151V185.1C251.561 184.54 252.015 184.087 252.574 184.087H280.927C281.487 184.087 281.94 184.542 281.94 185.1V189.151C281.94 189.71 281.486 190.163 280.928 190.163ZM201.429 226.708C201.024 226.716 200.623 226.643 200.247 226.494C199.871 226.345 199.529 226.123 199.24 225.84C198.951 225.557 198.722 225.219 198.565 224.847C198.409 224.474 198.328 224.074 198.328 223.67C198.328 223.265 198.409 222.865 198.565 222.493C198.722 222.12 198.951 221.782 199.24 221.499C199.529 221.216 199.871 220.994 200.247 220.845C200.623 220.696 201.024 220.624 201.429 220.632C202.224 220.648 202.981 220.975 203.537 221.543C204.094 222.111 204.405 222.875 204.405 223.67C204.405 224.465 204.094 225.228 203.537 225.796C202.981 226.364 202.224 226.691 201.429 226.708V226.708ZM210.792 226.708C210.387 226.716 209.986 226.643 209.61 226.494C209.234 226.345 208.892 226.123 208.603 225.84C208.314 225.557 208.085 225.219 207.928 224.847C207.772 224.474 207.691 224.074 207.691 223.67C207.691 223.265 207.772 222.865 207.928 222.493C208.085 222.12 208.314 221.782 208.603 221.499C208.892 221.216 209.234 220.994 209.61 220.845C209.986 220.696 210.387 220.624 210.792 220.632C211.587 220.648 212.344 220.975 212.9 221.543C213.457 222.111 213.768 222.875 213.768 223.67C213.768 224.465 213.457 225.228 212.9 225.796C212.344 226.364 211.587 226.691 210.792 226.708ZM220.155 226.708C219.751 226.716 219.349 226.643 218.973 226.494C218.597 226.345 218.255 226.123 217.966 225.84C217.677 225.557 217.448 225.219 217.291 224.847C217.135 224.474 217.054 224.074 217.054 223.67C217.054 223.265 217.135 222.865 217.291 222.493C217.448 222.12 217.677 221.782 217.966 221.499C218.255 221.216 218.597 220.994 218.973 220.845C219.349 220.696 219.751 220.624 220.155 220.632C220.95 220.648 221.707 220.975 222.263 221.543C222.82 222.111 223.131 222.875 223.131 223.67C223.131 224.465 222.82 225.228 222.263 225.796C221.707 226.364 220.95 226.691 220.155 226.708V226.708ZM280.928 226.708H252.574C252.305 226.708 252.048 226.601 251.858 226.411C251.668 226.221 251.561 225.964 251.561 225.695V221.644C251.561 221.085 252.015 220.632 252.574 220.632H280.927C281.487 220.632 281.94 221.086 281.94 221.644V225.695C281.94 226.254 281.486 226.708 280.928 226.708Z" fill="white"/>
<path fill-rule="evenodd" clip-rule="evenodd" d="M256.314 278.615H221.76C220.955 278.612 220.184 278.291 219.614 277.722C219.045 277.153 218.725 276.381 218.723 275.576V261.124C218.725 260.32 219.046 259.548 219.615 258.979C220.184 258.41 220.955 258.089 221.76 258.086H256.314C257.119 258.088 257.89 258.409 258.46 258.978C259.029 259.548 259.35 260.319 259.352 261.124V275.575C259.35 276.38 259.029 277.152 258.46 277.721C257.891 278.291 257.119 278.611 256.314 278.613" fill="#BFCDDD"/>
<path d="M253.799 261.082V275.625M223.766 261.082V275.625V261.082Z" stroke="#A3B4C6" stroke-width="1.124" stroke-linecap="round" stroke-linejoin="round"/>
<path fill-rule="evenodd" clip-rule="evenodd" d="M205.609 337.676C202.454 337.676 199.429 336.423 197.199 334.192C194.968 331.962 193.715 328.937 193.715 325.782V307.074C193.747 303.94 195.015 300.946 197.242 298.742C199.469 296.537 202.476 295.301 205.61 295.301C208.743 295.301 211.75 296.537 213.977 298.742C216.205 300.946 217.472 303.94 217.504 307.074V325.782C217.504 328.937 216.251 331.962 214.02 334.193C211.789 336.423 208.764 337.676 205.609 337.676Z" fill="#5BA02E"/>
<path fill-rule="evenodd" clip-rule="evenodd" d="M216.144 337.598C214.582 337.598 213.035 337.29 211.592 336.693C210.149 336.095 208.838 335.219 207.733 334.114C206.629 333.009 205.753 331.698 205.155 330.255C204.557 328.812 204.25 327.265 204.25 325.703V321.363C204.282 318.229 205.55 315.235 207.777 313.031C210.004 310.826 213.011 309.59 216.145 309.59C219.278 309.59 222.285 310.826 224.513 313.031C226.74 315.235 228.007 318.229 228.039 321.363V325.703C228.039 328.857 226.786 331.883 224.556 334.114C222.325 336.344 219.3 337.598 216.145 337.598" fill="#92C110"/>
<path fill-rule="evenodd" clip-rule="evenodd" d="M228.882 370.212H193.899C193.367 370.212 192.84 370.107 192.348 369.904C191.857 369.7 191.41 369.402 191.034 369.025C190.658 368.649 190.359 368.202 190.156 367.711C189.952 367.219 189.847 366.692 189.848 366.16V340.072C189.847 339.54 189.952 339.013 190.156 338.521C190.359 338.03 190.658 337.583 191.034 337.206C191.41 336.83 191.857 336.532 192.348 336.328C192.84 336.124 193.367 336.02 193.899 336.02H228.88C229.412 336.02 229.939 336.124 230.431 336.328C230.922 336.532 231.369 336.83 231.745 337.206C232.121 337.583 232.42 338.03 232.623 338.521C232.827 339.013 232.931 339.54 232.931 340.072V366.163C232.931 367.237 232.505 368.267 231.745 369.027C230.985 369.787 229.955 370.214 228.88 370.214" fill="#F2D7AD"/>
</svg>
