<svg width="16" height="16" viewBox="0 0 16 16" fill="none" xmlns="http://www.w3.org/2000/svg">
<rect width="16" height="16" fill="white"/>
<path d="M14.5361 9.65634L14.5272 8.12505L16 7.30093L7.97803 3.07031L0 7.38554L3.19861 9.22202L3.20499 10.3133L3.20564 10.4004L3.23486 10.3864C3.20115 10.4322 3.17954 10.4792 3.18019 10.5263C3.18273 11.063 5.34926 11.4877 8.02327 11.4732C10.696 11.4592 12.8593 11.0096 12.8574 10.4742C12.8574 10.4271 12.8326 10.3813 12.7996 10.3343L12.8288 10.3483V10.2611L12.8231 9.16546L14.21 8.30255L14.2176 9.6583C14.065 9.72377 13.9588 9.87386 13.9601 10.0494C13.9614 10.2796 14.1483 10.4659 14.3804 10.464C14.6138 10.4627 14.7988 10.2745 14.7975 10.0449C14.7962 9.86937 14.6894 9.72058 14.5361 9.65634ZM8.02132 11.1037C5.64879 11.117 3.72451 10.8563 3.72262 10.5237C3.72073 10.1912 5.64241 9.912 8.015 9.8999C10.3882 9.88655 12.3118 10.146 12.3131 10.4779C12.3149 10.8093 10.3945 11.091 8.02132 11.1037ZM12.7137 8.27645C12.3925 7.93878 11.2415 7.04722 7.99971 7.06571C4.75339 7.08289 3.61705 7.98525 3.29975 8.32799L3.29786 8.00497C3.29786 8.00497 4.21864 6.60405 7.99723 6.58433C11.7739 6.56396 12.7118 7.95407 12.7118 7.95407L12.7137 8.27645ZM14.0427 10.5555L13.8793 12.9268C14.3848 12.1326 14.8071 12.4282 14.8071 12.4282L14.7969 10.5517C14.2538 10.7648 14.0427 10.5555 14.0427 10.5555Z" fill="#366EF6"/>
</svg>
