<svg width="16" height="16" viewBox="0 0 16 16" fill="none" xmlns="http://www.w3.org/2000/svg">
<rect width="16" height="16" fill="white"/>
<path d="M8.0013 4.66603C9.41579 4.66603 10.7723 5.22793 11.7725 6.22813C12.7727 7.22832 13.3346 8.58488 13.3346 9.99937C13.3346 11.4139 12.7727 12.7704 11.7725 13.7706C10.7723 14.7708 9.41579 15.3327 8.0013 15.3327C6.58681 15.3327 5.23026 14.7708 4.23007 13.7706C3.22987 12.7704 2.66797 11.4139 2.66797 9.99937C2.66797 8.58488 3.22987 7.22832 4.23007 6.22813C5.23026 5.22793 6.58681 4.66603 8.0013 4.66603ZM8.0013 5.99936C6.94044 5.99936 5.92302 6.42079 5.17287 7.17094C4.42273 7.92108 4.0013 8.9385 4.0013 9.99937C4.0013 11.0602 4.42273 12.0776 5.17287 12.8278C5.92302 13.5779 6.94044 13.9994 8.0013 13.9994C9.06217 13.9994 10.0796 13.5779 10.8297 12.8278C11.5799 12.0776 12.0013 11.0602 12.0013 9.99937C12.0013 8.9385 11.5799 7.92108 10.8297 7.17094C10.0796 6.42079 9.06217 5.99936 8.0013 5.99936ZM8.0013 6.99937L8.8833 8.78603L10.8546 9.0727L9.42797 10.4627L9.76464 12.4267L8.0013 11.4994L6.23797 12.426L6.57463 10.4627L5.14797 9.07203L7.1193 8.78537L8.0013 6.99937ZM12.0013 1.3327V3.3327L11.0926 4.09136C10.3386 3.69575 9.51534 3.44925 8.66797 3.36536V1.3327H12.0013ZM7.33464 1.33203V3.36536C6.48753 3.44913 5.66452 3.6954 4.91064 4.0907L4.0013 3.3327V1.3327L7.33464 1.33203Z" fill="#366EF6"/>
</svg>
