<svg width="16" height="16" viewBox="0 0 16 16" fill="none" xmlns="http://www.w3.org/2000/svg">
<rect width="16" height="16" fill="white"/>
<path d="M6.98456 7.75531L3.9779 3.04065L5.26523 2.69531L9.89923 6.97531L13.4072 6.03531C13.6634 5.96671 13.9364 6.00269 14.1661 6.13534C14.3957 6.26799 14.5633 6.48645 14.6319 6.74265C14.7005 6.99884 14.6645 7.2718 14.5319 7.50147C14.3992 7.73114 14.1808 7.89871 13.9246 7.96731L3.94323 10.6406L3.4259 8.70865L3.58656 8.66531L5.23123 10.2953L3.48056 10.7646C3.33701 10.8031 3.1847 10.7926 3.04785 10.7346C2.911 10.6766 2.79744 10.5745 2.72523 10.4446L0.976562 7.29398L1.94256 7.03531L3.58656 8.66531L6.98456 7.75465V7.75531ZM2.6659 12.6673H13.3326V14.0006H2.6659V12.6673Z" fill="#366EF6"/>
</svg>
